[Header]
FileType HTR
DataType HTRS
FileVersion 1
NumSegments 22
NumFrames 4
DataFrameRate 24
EulerRotationOrder ZYX
CalibrationUnits mm
RotationUnits Degrees
GlobalAxisofGravity Y
BoneLengthAxis Y
ScaleFactor 1.0
[SegmentNames&Hierarchy]
reference	GLOBAL
Hips	reference
Spine	Hips
Spine1	Spine
Neck	Spine1
Head	Neck
LeftShoulder	Spine1
LeftArm	LeftShoulder
LeftForeArm	LeftArm
LeftHand	LeftForeArm
RightShoulder	Spine1
RightArm	RightShoulder
RightForeArm	RightArm
RightHand	RightForeArm
LeftUpLeg	Hips
LeftLeg	LeftUpLeg
LeftFoot	LeftLeg
LeftToeBase	LeftFoot
RightUpLeg	Hips
RightLeg	RightUpLeg
RightFoot	RightLeg
RightToeBase	RightFoot
[BasePosition]
reference	0	0	0	0	0	0	1
Hips	0	0	0	0	0	0	1
Spine	0	0	0	-0	-90	0	1
Spine1	0	0	0	0	0	0	1
Neck	0	0	0	82.64767223	-82.64767223	-90	1
Head	0	0	0	-0	-90	0	1
LeftShoulder	0	0	0	0	0	0	1
LeftArm	0	0	0	0	0	0	1
LeftForeArm	0	0	0	0	0	0	1
LeftHand	0	0	0	0	0	0	1
RightShoulder	0	0	0	0	-0	180	1
RightArm	0	0	0	0	-0	180	1
RightForeArm	0	0	0	0	-0	180	1
RightHand	0	0	0	0	-0	180	1
LeftUpLeg	0	0	0	-0	90	0	1
LeftLeg	0	0	0	-0	90	0	1
LeftFoot	0	0	0	-23.42853957	23.42853957	-90	1
LeftToeBase	0	0	0	0	-0	-90	1
RightUpLeg	0	0	0	-0	90	0	1
RightLeg	0	0	0	-0	90	0	1
RightFoot	0	0	0	-23.42853957	23.42853957	-90	1
RightToeBase	0	0	0	0	-0	-90	1
[reference]
10	0	0	0	0	-0	0	1.0
11	0	0	0	0	-0	0	1.0
12	0	0	0	0	-0	0	1.0
13	0	0	0	0	-0	0	1.0
[Hips]
10	4.295877457	-0.3037578762	7.7892313	-1.650031567	-0.6672849655	-93.33973694	1.0
11	3.968081474	-0.2382975072	7.672536373	-2.118863106	0.1916565001	-90.07723999	1.0
12	3.587697744	-0.1744856238	7.540358543	-2.53888154	0.9839626551	-86.8074646	1.0
13	3.13120985	-0.1041899994	7.472450256	-3.47739768	1.384751678	-81.8926239	1.0
[Spine]
10	0	0	0.7457100153	238.7969666	92.06413269	246.0045624	1.0
11	0	0	0.7457100153	247.4134521	93.25643921	255.0493164	1.0
12	0	0	0.7457100153	253.899353	94.74398041	261.898407	1.0
13	0	0	0.7457100153	261.8048401	95.2322998	269.9671631	1.0
[Spine1]
10	0	0	2.140589952	8.700878143	4.553104401	0.9743881226	1.0
11	0	0	2.140589952	8.997250557	4.786831379	1.427402258	1.0
12	0	0	2.140589952	8.158527374	5.762817383	1.99074626	1.0
13	0	0	2.140589952	7.705159664	8.650847435	2.375505924	1.0
[Neck]
10	0	0	2.32246995	83.57246399	83.25935364	83.49229431	1.0
11	0	0	2.32246995	87.00401306	84.97618866	87.2864151	1.0
12	0	0	2.32246995	98.81932068	87.36754608	98.20755005	1.0
13	0	0	2.32246995	8.310791016	89.19019318	6.227015972	1.0
[Head]
10	0	-0.1818799973	1.409579992	-4.709907055	94.92619324	4.100752831	1.0
11	0	-0.1818799973	1.409579992	34.82511139	93.53987885	42.61828995	1.0
12	0	-0.1818799973	1.409579992	88.68690491	94.82519531	95.35374451	1.0
13	0	-0.1818799973	1.409579992	110.0273285	98.43906403	115.4589996	1.0
[LeftShoulder]
10	0.3668199778	0.02662999928	1.946700096	-6.762004852	-4.607471943	-3.509003162	1.0
11	0.3668199778	0.02662999928	1.946700096	-7.049467564	-5.552810669	-2.35142374	1.0
12	0.3668199778	0.02662999928	1.946700096	-6.690937042	-6.47863102	-1.607468486	1.0
13	0.3668199778	0.02662999928	1.946700096	-6.490314484	-8.240339279	-1.454957128	1.0
[LeftArm]
10	1.140689969	0	0	58.72439194	69.34388733	43.00447845	1.0
11	1.140689969	0	0	56.06266022	67.2822113	39.44064331	1.0
12	1.140689969	0	0	50.68262482	64.32388306	32.91075516	1.0
13	1.140689969	0	0	41.12805176	59.64196014	20.63961411	1.0
[LeftForeArm]
10	2.749800205	0	0	-6.955993176	8.212815285	-63.9497757	1.0
11	2.749800205	0	0	-8.993780136	9.469194412	-78.92601013	1.0
12	2.749800205	0	0	-12.04248428	11.14431381	-94.37201691	1.0
13	2.749800205	0	0	-21.10362053	13.80032635	-110.36483	1.0
[LeftHand]
10	2.295179844	0	0	-2.168249846	2.843772173	-12.78344536	1.0
11	2.295179844	0	0	-1.521276712	3.336874008	-12.10210323	1.0
12	2.295179844	0	0	-0.3623361588	3.131494999	-10.32450008	1.0
13	2.295179844	0	0	-0.8426676393	-4.128366947	-14.19279289	1.0
[RightShoulder]
10	-0.3601199985	0.02662999928	1.946700096	-6.777404785	3.493715286	-171.9898682	1.0
11	-0.3601199985	0.02662999928	1.946700096	-6.884215355	4.586005688	-171.9085083	1.0
12	-0.3601199985	0.02662999928	1.946700096	-6.491492271	5.920977116	-172.4774475	1.0
13	-0.3601199985	0.02662999928	1.946700096	-7.161917686	8.053210258	-173.1507568	1.0
[RightArm]
10	-1.140689969	0	0	-114.3376999	-102.6208267	-26.06793785	1.0
11	-1.140689969	0	0	-115.8919067	-103.8811646	-25.43456268	1.0
12	-1.140689969	0	0	-119.2103653	-104.9253769	-21.86536217	1.0
13	-1.140689969	0	0	-123.2904739	-105.9391937	-14.10203552	1.0
[RightForeArm]
10	-2.749800205	0	0	5.657310963	1.978491664	-126.1441574	1.0
11	-2.749800205	0	0	7.828857422	4.275884628	-110.7364044	1.0
12	-2.749800205	0	0	14.21355438	5.413375854	-92.93933868	1.0
13	-2.749800205	0	0	26.67284203	6.474524021	-73.91544342	1.0
[RightHand]
10	-2.295179844	0	0	4.517002583	-1.478700399	-167.1329956	1.0
11	-2.295179844	0	0	5.023871899	2.098884106	-168.1275635	1.0
12	-2.295179844	0	0	9.807267189	7.250197411	-169.1233368	1.0
13	-2.295179844	0	0	19.45319176	13.40553761	-168.3158875	1.0
[LeftUpLeg]
10	0.9094099998	0	0	164.1457825	-86.69236755	-192.6350708	1.0
11	0.9094099998	0	0	184.2299805	-86.19573975	-213.3713531	1.0
12	0.9094099998	0	0	212.6894379	-84.72628784	-241.4911346	1.0
13	0.9094099998	0	0	245.0640564	-82.43401337	-271.2103271	1.0
[LeftLeg]
10	0	0	-4.498080254	38.59963226	-60.58362579	-0.3316063881	1.0
11	0	0	-4.498080254	34.54797745	-57.02181625	5.424272537	1.0
12	0	0	-4.498080254	30.81417274	-55.8528595	14.98823166	1.0
13	0	0	-4.498080254	49.01794052	-55.9343338	1.600012302	1.0
[LeftFoot]
10	0	0	-3.729400158	-59.45669174	-2.837794542	118.0224533	1.0
11	0	0	-3.729400158	-60.52560806	-3.66135025	129.1717529	1.0
12	0	0	-3.729400158	-62.9794426	-12.59840965	136.1079102	1.0
13	0	0	-3.729400158	-68.78166962	-12.52613163	134.6799927	1.0
[LeftToeBase]
10	0	-1.364109993	-0.5911099911	-9.999999975e-007	0	0	1.0
11	0	-1.364109993	-0.5911099911	-9.999999975e-007	0	0	1.0
12	0	-1.364109993	-0.5911099911	-9.999999975e-007	0	0	1.0
13	0	-1.364109993	-0.5911099911	-9.999999975e-007	0	0	1.0
[RightUpLeg]
10	-0.9094099998	0	0	104.2097015	-60.2214241	-83.7486496	1.0
11	-0.9094099998	0	0	107.4166565	-57.27281189	-84.34854126	1.0
12	-0.9094099998	0	0	109.2663651	-52.6154213	-85.01785278	1.0
13	-0.9094099998	0	0	108.4987564	-47.73841095	-90.60123444	1.0
[RightLeg]
10	0	0	-4.498080254	-95.08307648	-97.25794983	102.0103607	1.0
11	0	0	-4.498080254	-102.8822174	-98.63902283	111.7594757	1.0
12	0	0	-4.498080254	-118.3388138	-101.9273071	132.4986725	1.0
13	0	0	-4.498080254	-127.5592804	-118.7730789	159.9398651	1.0
[RightFoot]
10	0	0	-3.729400158	-64.03248596	-32.74897003	91.23974609	1.0
11	0	0	-3.729400158	-65.95541382	-34.98009491	94.94226837	1.0
12	0	0	-3.729400158	-70.57100677	-37.37288666	103.1343231	1.0
13	0	0	-3.729400158	-66.8514328	-35.86734772	114.7273636	1.0
[RightToeBase]
10	0	-1.364109993	-0.5911099911	3.000000106e-006	9.999999975e-007	9.999999975e-007	1.0
11	0	-1.364109993	-0.5911099911	3.000000106e-006	9.999999975e-007	9.999999975e-007	1.0
12	0	-1.364109993	-0.5911099911	3.000000106e-006	9.999999975e-007	9.999999975e-007	1.0
13	0	-1.364109993	-0.5911099911	3.000000106e-006	9.999999975e-007	9.999999975e-007	1.0
[EndOfFile]
